Coordinates
version=1
nRows=8
nColumns=63
inDegrees=yes

Units are S.I. units (second, meters, Newtons, ...)
If the header above contains a line with 'inDegrees', this indicates whether rotational values are in degrees (yes) or radians (no).

endheader
time	pelvis_tilt	pelvis_list	pelvis_rotation	pelvis_tx	pelvis_ty	pelvis_tz	hip_flexion_r	hip_adduction_r	hip_rotation_r	knee_angle_r	knee_angle_r_beta	ankle_angle_r	subtalar_angle_r	mtp_angle_r	hip_flexion_l	hip_adduction_l	hip_rotation_l	knee_angle_l	knee_angle_l_beta	ankle_angle_l	subtalar_angle_l	mtp_angle_l	L5_S1_Flex_Ext	L5_S1_Lat_Bending	L5_S1_axial_rotation	L4_L5_Flex_Ext	L4_L5_Lat_Bending	L4_L5_axial_rotation	L3_L4_Flex_Ext	L3_L4_Lat_Bending	L3_L4_axial_rotation	L2_L3_Flex_Ext	L2_L3_Lat_Bending	L2_L3_axial_rotation	L1_L2_Flex_Ext	L1_L2_Lat_Bending	L1_L2_axial_rotation	L1_T12_Flex_Ext	L1_T12_Lat_Bending	L1_T12_axial_rotation	Abs_r3	Abs_r2	Abs_r1	Abs_t1	Abs_t2	neck_flexion	neck_bending	neck_rotation	arm_flex_r	arm_add_r	arm_rot_r	elbow_flex_r	pro_sup_r	wrist_flex_r	wrist_dev_r	arm_flex_l	arm_add_l	arm_rot_l	elbow_flex_l	pro_sup_l	wrist_flex_l	wrist_dev_l
2.106383	-6.067469	1.206261	96.505758	0.091475	0.973629	0.479808	-9.363674	-2.319810	-1.602600	5.409114	0.094407	24.380567	4.570655	0.000000	-8.983833	3.247012	4.922201	1.835103	0.032029	27.137708	-3.438129	0.000000	-0.236004	-0.178127	1.524843	-0.438284	-0.236910	1.620145	-0.387732	-0.433099	1.620145	-0.269729	-0.433099	1.334237	-0.219154	-0.363238	1.238935	-0.134853	-0.275919	1.143632	-1.685755	-2.015013	8.480718	0.000000	0.000000	18.010905	6.326836	-6.306460	4.096485	-11.798761	116.045611	8.536620	4.561175	2.101610	-13.009506	-0.036138	-18.729095	52.397411	27.757136	83.371697	-16.051988	-9.592485
2.127660	-6.060804	1.378560	96.702363	0.091262	0.973910	0.480046	-9.742499	-2.225370	-0.808471	5.032195	0.087828	23.829296	3.304645	0.000000	-9.171389	3.162194	5.108319	1.838928	0.032095	27.113797	-3.331279	0.000000	-0.252414	-0.168381	1.512198	-0.468758	-0.223947	1.606710	-0.414691	-0.409401	1.606710	-0.288484	-0.409401	1.323173	-0.234392	-0.343362	1.228661	-0.144229	-0.260822	1.134148	-1.802967	-1.904758	8.410391	0.000000	0.000000	17.654772	6.210633	-6.213128	3.981181	-11.875232	115.748608	8.882362	4.825052	0.804101	-12.663239	0.382162	-18.588203	54.460839	26.996500	82.383030	-16.669580	-10.459934
2.148936	-6.041104	1.532230	96.916339	0.090997	0.974158	0.480253	-10.109322	-2.112683	0.101007	4.648202	0.081126	23.254659	1.892957	0.000000	-9.357813	3.062619	5.359484	1.819760	0.031761	27.042953	-3.286921	0.000000	-0.265721	-0.157497	1.492147	-0.493471	-0.209472	1.585406	-0.436554	-0.382939	1.585406	-0.303693	-0.382939	1.305629	-0.246749	-0.321169	1.212369	-0.151833	-0.243964	1.119110	-1.898021	-1.781642	8.298873	0.000000	0.000000	17.277303	6.078275	-6.172410	3.891890	-11.908766	115.948916	8.993251	4.979854	-0.061160	-12.170785	0.714596	-18.438147	56.101175	26.367947	81.502088	-17.170344	-11.192101
2.170213	-6.016434	1.655288	97.163531	0.090686	0.974352	0.480459	-10.451791	-1.982276	1.206579	4.256433	0.074289	22.650172	0.183001	0.000000	-9.526810	2.954496	5.640613	1.774199	0.030966	26.944917	-3.231131	0.000000	-0.274911	-0.147595	1.459732	-0.510537	-0.196301	1.550965	-0.451651	-0.358862	1.550965	-0.314195	-0.358862	1.277265	-0.255282	-0.300975	1.186032	-0.157084	-0.228624	1.094799	-1.963659	-1.669620	8.118591	0.000000	0.000000	16.910277	5.944030	-6.195760	3.855458	-11.896386	116.634659	8.890613	5.043727	-0.425661	-11.537438	0.926073	-18.302275	57.178292	25.932279	80.803215	-17.459272	-11.733656
2.191489	-5.986380	1.752850	97.423566	0.090368	0.974518	0.480755	-10.739549	-1.851542	2.223710	3.911350	0.068266	22.113559	-1.390606	0.000000	-9.675262	2.840646	5.988700	1.701321	0.029694	26.805245	-3.240703	0.000000	-0.281239	-0.138307	1.421620	-0.522290	-0.183949	1.510471	-0.462048	-0.336280	1.510471	-0.321428	-0.336280	1.243918	-0.261159	-0.282036	1.155066	-0.160700	-0.214238	1.066215	-2.008864	-1.564559	7.906625	0.000000	0.000000	16.558036	5.806755	-6.247417	3.884529	-11.863928	117.517129	8.649666	5.023960	-0.224231	-10.777135	1.091755	-18.195834	57.951818	25.648849	80.242737	-17.676347	-12.089522
2.212766	-5.948590	1.815427	97.723821	0.090038	0.974629	0.481150	-10.963727	-1.706309	3.195500	3.609371	0.062995	21.640173	-2.935671	0.000000	-9.786168	2.715386	6.433898	1.604606	0.028006	26.640655	-3.335677	0.000000	-0.282681	-0.130728	1.370683	-0.524967	-0.173869	1.456350	-0.464417	-0.317853	1.456350	-0.323076	-0.317853	1.199347	-0.262498	-0.266581	1.113680	-0.161524	-0.202498	1.028012	-2.019164	-1.478827	7.623327	0.000000	0.000000	16.237139	5.670266	-6.379459	3.971785	-11.787326	118.861186	8.191379	4.893440	0.659372	-10.003567	1.156598	-18.109588	58.262378	25.557518	79.873047	-17.797755	-12.222409
2.234043	-5.910574	1.856022	98.037219	0.089748	0.974724	0.481754	-11.117530	-1.566443	3.971833	3.367683	0.058777	21.270749	-4.220248	0.000000	-9.860171	2.591942	6.912229	1.495894	0.026108	26.472977	-3.487250	0.000000	-0.282468	-0.125135	1.319500	-0.524572	-0.166430	1.401969	-0.464067	-0.304254	1.401969	-0.322833	-0.304254	1.154563	-0.262300	-0.255176	1.072094	-0.161402	-0.193834	0.989625	-2.017641	-1.415554	7.338665	0.000000	0.000000	15.960548	5.542330	-6.552247	4.118941	-11.698689	120.508206	7.628137	4.709005	1.919993	-9.423246	1.253260	-18.087423	58.535861	25.566558	79.721656	-17.961431	-12.245505
2.255319	-5.871466	1.864012	98.383712	0.089500	0.974799	0.482592	-11.189381	-1.428064	4.505577	3.188238	0.055645	21.005799	-5.229912	0.000000	-9.878998	2.469147	7.448981	1.382496	0.024129	26.297368	-3.710456	0.000000	-0.279579	-0.122623	1.265817	-0.519207	-0.163088	1.344930	-0.459321	-0.298145	1.344930	-0.319531	-0.298145	1.107590	-0.259617	-0.250052	1.028476	-0.159752	-0.189943	0.949362	-1.997007	-1.387133	7.040092	0.000000	0.000000	15.754315	5.471791	-6.790007	4.322789	-11.581163	122.674726	6.919888	4.498466	3.386761	-9.135667	1.356863	-18.122500	58.650775	25.679207	79.906860	-18.082944	-12.185058
